<svg version="1.1" id="Layer_1" xmlns="http://www.w3.org/2000/svg" xmlns:xlink="http://www.w3.org/1999/xlink" x="0px" y="0px"
	 width="100%" viewBox="0 0 500 500" enable-background="new 0 0 500 500" xml:space="preserve">
<path fill="#FED600" opacity="1.000000" stroke="none" 
	d="
M282.000000,501.000000 
	C188.000015,501.000000 94.500046,501.000000 1.000050,501.000000 
	C1.000033,334.333405 1.000033,167.666794 1.000017,1.000140 
	C167.666565,1.000093 334.333130,1.000093 500.999756,1.000046 
	C500.999847,167.666519 500.999847,334.333038 500.999939,500.999786 
	C428.166656,501.000000 355.333344,501.000000 282.000000,501.000000 
M349.302948,43.809139 
	C115.038116,111.445259 5.506830,328.144348 11.727189,491.741547 
	C166.500153,491.741547 321.267761,491.741547 476.117188,491.741547 
	C476.117188,486.404358 476.117188,481.328461 476.117188,476.206085 
	C475.401825,476.040192 474.935913,475.842529 474.467407,475.836151 
	C409.315002,474.949860 344.162445,474.074066 279.009460,473.232788 
	C277.906860,473.218567 276.397217,473.240631 275.756439,473.902740 
	C270.390900,479.447174 263.267334,479.911041 256.358490,480.524689 
	C243.282471,481.686127 230.453705,480.623779 218.240875,475.131775 
	C215.644318,473.964142 212.671295,472.956696 209.884445,472.988556 
	C147.563278,473.699799 85.244087,474.583252 22.923449,475.346344 
	C20.420568,475.376984 16.280603,476.872864 16.239670,472.549530 
	C16.200254,468.386566 20.310722,469.475830 22.893972,469.435150 
	C86.377815,468.435333 149.862717,467.502625 213.348190,466.611298 
	C214.945633,466.588867 216.787766,466.760590 218.117065,467.530304 
	C232.143936,475.652405 247.248077,475.921478 262.647308,473.686035 
	C265.183594,473.317841 268.501648,472.451477 269.791931,470.632965 
	C272.318634,467.071655 275.388184,467.151245 278.928680,467.199554 
	C342.748138,468.071136 406.568176,468.903809 470.388092,469.740784 
	C472.182953,469.764313 473.978394,469.743805 476.051208,469.743805 
	C476.051208,321.647980 476.051208,173.978195 476.051208,26.033617 
	C433.003204,26.013851 391.148071,31.939787 349.302948,43.809139 
z"/>
<path fill="#010100" opacity="1.000000" stroke="none" 
	d="
M349.688354,43.681618 
	C391.148071,31.939787 433.003204,26.013851 476.051208,26.033617 
	C476.051208,173.978195 476.051208,321.647980 476.051208,469.743805 
	C473.978394,469.743805 472.182953,469.764313 470.388092,469.740784 
	C406.568176,468.903809 342.748138,468.071136 278.928680,467.199554 
	C275.388184,467.151245 272.318634,467.071655 269.791931,470.632965 
	C268.501648,472.451477 265.183594,473.317841 262.647308,473.686035 
	C247.248077,475.921478 232.143936,475.652405 218.117065,467.530304 
	C216.787766,466.760590 214.945633,466.588867 213.348190,466.611298 
	C149.862717,467.502625 86.377815,468.435333 22.893972,469.435150 
	C20.310722,469.475830 16.200254,468.386566 16.239670,472.549530 
	C16.280603,476.872864 20.420568,475.376984 22.923449,475.346344 
	C85.244087,474.583252 147.563278,473.699799 209.884445,472.988556 
	C212.671295,472.956696 215.644318,473.964142 218.240875,475.131775 
	C230.453705,480.623779 243.282471,481.686127 256.358490,480.524689 
	C263.267334,479.911041 270.390900,479.447174 275.756439,473.902740 
	C276.397217,473.240631 277.906860,473.218567 279.009460,473.232788 
	C344.162445,474.074066 409.315002,474.949860 474.467407,475.836151 
	C474.935913,475.842529 475.401825,476.040192 476.117188,476.206085 
	C476.117188,481.328461 476.117188,486.404358 476.117188,491.741547 
	C321.267761,491.741547 166.500153,491.741547 11.727189,491.741547 
	C5.506830,328.144348 115.038116,111.445259 349.688354,43.681618 
M233.980392,423.023682 
	C233.980392,423.023682 233.912460,423.028595 233.965851,423.724518 
	C234.008759,424.168030 234.051651,424.611572 233.517899,425.603058 
	C222.332657,413.649963 208.514557,406.522278 192.543320,403.489868 
	C171.354904,399.466827 150.470062,402.337280 129.656586,406.504181 
	C111.244217,410.190338 92.826744,413.851044 74.407623,417.503326 
	C68.858215,418.603699 61.978115,416.234528 58.817036,423.555939 
	C58.684444,423.863007 57.943886,423.944519 57.469379,424.061249 
	C52.628109,425.252563 48.668949,429.292450 43.065464,428.297974 
	C42.085629,428.124115 40.556000,429.741516 39.621014,430.825531 
	C31.189053,440.601288 27.369690,452.611237 22.797852,464.665833 
	C26.591373,464.665833 29.735701,464.708069 32.878628,464.659515 
	C90.486092,463.769409 148.091843,462.712616 205.702423,462.141876 
	C214.113663,462.058533 221.205536,460.609039 227.488525,454.825958 
	C232.454849,450.254822 237.970108,446.280029 243.818497,442.081421 
	C244.202988,442.058350 244.587494,442.035248 245.860031,442.006714 
	C245.980225,440.689789 246.100418,439.372833 246.765930,438.076691 
	C247.129501,438.064514 247.493088,438.052368 248.084229,438.617432 
	C248.293884,438.687653 248.503540,438.757843 248.713196,438.828064 
	C248.794418,438.518036 248.946457,438.208038 248.946716,437.897949 
	C248.961929,420.078766 249.093689,402.258453 248.941971,384.440582 
	C248.607925,345.209076 236.348862,310.370392 210.264267,280.721924 
	C200.483261,269.604553 189.537888,259.787842 177.506424,251.120865 
	C154.766418,270.086975 132.321945,288.806610 109.449997,307.882782 
	C117.464218,312.126495 124.942612,316.008240 132.349289,320.022308 
	C160.926010,335.509583 188.882492,351.926208 212.118759,375.122620 
	C225.800858,388.781189 236.976532,404.142975 242.905457,423.137390 
	C242.652649,423.406403 242.399841,423.675415 241.857681,423.285522 
	C231.961472,401.244202 216.194672,384.672607 195.035477,373.168701 
	C164.561005,356.600128 131.226074,349.877563 97.379303,344.985077 
	C96.236191,344.819824 94.516792,345.110809 93.829529,345.875458 
	C87.757919,352.630524 81.859268,359.541107 75.340012,367.062744 
	C87.404984,368.101807 98.481804,369.175446 109.577835,369.986237 
	C132.338120,371.649384 155.033691,373.863464 177.059494,380.154297 
	C194.129044,385.029510 210.265076,391.923615 222.739700,405.321289 
	C222.426926,405.585449 222.114136,405.849609 221.197021,405.844421 
	C208.586884,394.512482 193.251953,389.498932 176.918793,386.967834 
	C153.293121,383.306580 129.829712,386.666809 106.269936,388.307251 
	C96.218086,389.007141 88.751068,392.873962 81.658791,399.210419 
	C76.155739,404.126984 70.204277,408.541626 64.452126,413.179352 
	C64.650696,413.654266 64.849266,414.129150 65.047836,414.604034 
	C79.203873,411.919678 93.416733,409.501038 107.502678,406.488892 
	C128.807907,401.932953 150.009262,396.595734 171.993927,397.073425 
	C194.664810,397.566010 215.300613,403.616394 231.426361,420.771942 
	C231.719528,421.083832 232.415741,421.016907 232.980347,421.051849 
	C232.980347,421.051849 232.902390,420.999725 232.274689,421.508453 
	C232.837952,422.035614 233.401230,422.562775 233.980392,423.023682 
M268.127014,429.322266 
	C271.820984,426.489136 275.344574,423.393402 279.237885,420.867554 
	C297.958588,408.721985 319.130585,405.571198 340.786316,405.083710 
	C372.245728,404.375549 403.143677,409.818085 434.083466,414.565216 
	C439.992157,415.471802 445.900269,416.382050 451.808685,417.290588 
	C440.983490,406.031738 429.703918,395.964691 418.682465,385.622650 
	C415.564117,382.696472 412.282898,381.395782 408.101654,381.041351 
	C395.825836,380.000824 383.600098,378.330597 371.316406,377.430237 
	C351.216888,375.956970 331.088593,374.487000 311.115997,379.022949 
	C279.014648,386.313416 261.558289,406.199432 254.171829,438.699738 
	C253.843582,440.143982 254.812546,441.883057 255.177261,443.484802 
	C256.339081,442.499542 257.485382,441.495239 258.666626,440.533844 
	C260.134521,439.339081 261.631256,438.179779 263.096130,437.714813 
	C261.298676,440.263031 259.501251,442.811249 257.609833,445.492706 
	C261.918243,450.146515 265.783173,454.752167 270.144257,458.826874 
	C271.971283,460.533905 274.838989,462.043793 277.252380,462.072754 
	C340.702087,462.834106 404.154236,463.389648 467.606018,463.977692 
	C469.348389,463.993835 471.091034,463.979736 473.247040,463.979736 
	C469.376587,449.634796 464.299408,436.533234 456.387054,424.675446 
	C455.526703,423.386078 453.616516,422.336823 452.038422,422.060486 
	C440.572845,420.052734 429.072266,418.242004 417.573822,416.425232 
	C391.259918,412.267578 364.918854,408.291656 338.163208,408.848145 
	C314.140564,409.347778 291.107208,413.232361 271.655792,428.975037 
	C270.757019,429.702423 269.244690,429.671692 268.127014,429.322266 
M379.206177,264.313232 
	C378.867157,262.955780 377.799255,261.160614 378.308502,260.312531 
	C381.410645,255.146469 377.004974,255.040863 373.184265,253.614975 
	C376.418030,247.535904 379.051086,241.430588 382.710236,236.019043 
	C386.699890,230.118637 391.872223,225.032532 396.119049,219.288361 
	C405.111572,207.125229 411.083832,193.817566 410.520142,178.239243 
	C409.453278,148.755112 371.162079,118.257889 335.755768,138.014008 
	C315.662842,149.225510 305.069092,169.411285 309.178375,190.356781 
	C312.112488,205.312180 319.833069,217.875443 330.327362,228.697861 
	C337.313965,235.902908 342.050812,244.236710 345.019562,253.910828 
	C341.994507,255.078049 338.372986,255.422119 341.005798,260.279816 
	C342.010071,262.132690 341.360779,265.320618 340.586090,267.601562 
	C339.244385,271.551819 341.107025,272.137665 344.302856,272.606476 
	C346.124115,272.873627 348.471741,273.707703 349.419922,275.086121 
	C354.903259,283.057709 364.073822,283.134735 369.497589,275.159973 
	C370.341003,273.919922 372.188049,272.674500 373.602631,272.637360 
	C378.203827,272.516479 381.069427,271.691925 378.147583,266.328430 
	C378.034576,266.120972 378.645355,265.519196 379.206177,264.313232 
M254.061951,371.803253 
	C253.374298,374.290649 252.142441,376.767242 252.092926,379.267273 
	C251.875198,390.258362 251.998978,401.256165 251.998978,412.251556 
	C251.998978,419.927094 251.998978,427.602661 251.998978,435.278198 
	C253.255020,433.995605 253.639343,432.619629 253.991821,431.235565 
	C263.060883,395.623688 284.620636,376.114563 321.004974,370.667908 
	C344.127075,367.206573 367.198517,369.109711 390.247314,371.527618 
	C400.110016,372.562195 409.944366,373.867310 420.862122,375.178040 
	C412.987457,363.269653 405.708252,352.201630 398.318665,341.207825 
	C397.763824,340.382416 396.480621,339.816132 395.435211,339.584503 
	C369.126099,333.755371 342.608643,330.205261 315.676208,334.111694 
	C290.145355,337.814850 269.009308,349.130402 254.061951,371.803253 
M412.831787,124.784355 
	C411.642944,124.569351 409.893768,123.741219 409.353058,124.235397 
	C404.600983,128.578293 400.064209,133.156815 395.091064,138.030685 
	C396.972076,139.996414 398.419495,141.509048 400.009094,143.170242 
	C404.838104,138.311844 409.095337,133.873764 413.539856,129.631897 
	C415.369507,127.885643 415.162903,126.655334 412.831787,124.784355 
M356.730347,106.144272 
	C356.730347,113.281792 356.730347,120.419304 356.730347,127.626892 
	C358.638824,127.626892 360.556000,127.626892 362.727295,127.626892 
	C362.727295,120.387222 362.727295,113.370895 362.727295,106.004204 
	C360.885498,106.004204 359.269623,106.004204 356.730347,106.144272 
M310.002075,229.503738 
	C307.764130,231.439117 305.526184,233.374496 303.029358,235.533737 
	C305.415924,237.772644 306.909210,239.173523 307.796844,240.006256 
	C313.207001,234.833145 318.225922,230.034134 323.322266,225.161087 
	C322.022156,223.601990 320.691986,222.006836 319.020691,220.002625 
	C315.750641,223.457642 313.126099,226.230606 310.002075,229.503738 
M400.354370,221.004150 
	C398.731171,222.285583 397.107971,223.567017 395.531860,224.811264 
	C400.970612,230.134247 406.001556,235.058105 411.398132,240.339798 
	C412.545929,239.161743 413.897491,237.774567 416.159119,235.453369 
	C410.900513,230.569641 405.942871,225.965424 400.354370,221.004150 
M322.846039,138.972214 
	C322.743500,138.238876 322.908264,137.263870 322.497314,136.809326 
	C318.093475,131.938187 313.598633,127.149261 308.928406,122.122162 
	C306.615875,124.407715 305.213409,125.793823 303.820953,127.170044 
	C309.201447,132.272751 314.319916,137.126953 320.145630,142.651886 
	C320.655396,141.921036 321.503326,140.705368 322.846039,138.972214 
M287.678589,178.147522 
	C286.219849,178.220459 284.761139,178.293396 283.166504,178.373138 
	C283.166504,180.690048 283.166504,182.721939 283.166504,184.631912 
	C290.369781,184.631912 297.242157,184.631912 304.310211,184.631912 
	C304.196442,182.318527 304.102112,180.400360 303.991333,178.147491 
	C298.577026,178.147491 293.609772,178.147491 287.678589,178.147522 
M417.704834,185.014023 
	C423.813477,185.014023 429.922119,185.014023 435.978455,185.014023 
	C435.978455,182.514114 435.978455,180.578278 435.978455,178.501190 
	C428.851990,178.501190 421.987091,178.501190 413.837463,178.501190 
	C415.026855,181.159515 415.887421,183.082916 417.704834,185.014023 
z"/>
<path fill="#FDD500" opacity="1.000000" stroke="none" 
	d="
M243.241577,442.040405 
	C237.970108,446.280029 232.454849,450.254822 227.488525,454.825958 
	C221.205536,460.609039 214.113663,462.058533 205.702423,462.141876 
	C148.091843,462.712616 90.486092,463.769409 32.878628,464.659515 
	C29.735701,464.708069 26.591373,464.665833 22.797852,464.665833 
	C27.369690,452.611237 31.189053,440.601288 39.621014,430.825531 
	C40.556000,429.741516 42.085629,428.124115 43.065464,428.297974 
	C48.668949,429.292450 52.628109,425.252563 57.469379,424.061249 
	C57.943886,423.944519 58.684444,423.863007 58.817036,423.555939 
	C61.978115,416.234528 68.858215,418.603699 74.407623,417.503326 
	C92.826744,413.851044 111.244217,410.190338 129.656586,406.504181 
	C150.470062,402.337280 171.354904,399.466827 192.543320,403.489868 
	C208.514557,406.522278 222.332657,413.649963 233.782196,425.288361 
	C234.046509,424.973663 233.953491,424.953918 233.709564,425.220093 
	C233.631989,425.660217 233.798340,425.834167 234.079773,426.333252 
	C237.210419,431.785706 240.225998,436.913055 243.241577,442.040405 
M185.977173,432.467438 
	C159.756897,429.281677 134.261841,435.129608 108.549889,438.998596 
	C144.656555,438.523438 180.881012,433.971497 216.731171,442.568604 
	C207.457458,436.890808 197.381012,434.078125 185.977173,432.467438 
z"/>
<path fill="#FED600" opacity="1.000000" stroke="none" 
	d="
M243.237808,422.687500 
	C236.976532,404.142975 225.800858,388.781189 212.118759,375.122620 
	C188.882492,351.926208 160.926010,335.509583 132.349289,320.022308 
	C124.942612,316.008240 117.464218,312.126495 109.449997,307.882782 
	C132.321945,288.806610 154.766418,270.086975 177.506424,251.120865 
	C189.537888,259.787842 200.483261,269.604553 210.264267,280.721924 
	C236.348862,310.370392 248.607925,345.209076 248.941971,384.440582 
	C249.093689,402.258453 248.961929,420.078766 248.946716,437.897949 
	C248.946457,438.208038 248.794418,438.518036 248.713196,438.828064 
	C248.503540,438.757843 248.293884,438.687653 247.992218,437.934998 
	C246.346085,432.397552 244.791946,427.542511 243.237808,422.687500 
z"/>
<path fill="#FDD601" opacity="1.000000" stroke="none" 
	d="
M379.062531,264.707184 
	C378.645355,265.519196 378.034576,266.120972 378.147583,266.328430 
	C381.069427,271.691925 378.203827,272.516479 373.602631,272.637360 
	C372.188049,272.674500 370.341003,273.919922 369.497589,275.159973 
	C364.073822,283.134735 354.903259,283.057709 349.419922,275.086121 
	C348.471741,273.707703 346.124115,272.873627 344.302856,272.606476 
	C341.107025,272.137665 339.244385,271.551819 340.586090,267.601562 
	C341.360779,265.320618 342.010071,262.132690 341.005798,260.279816 
	C338.372986,255.422119 341.994507,255.078049 345.019562,253.910828 
	C342.050812,244.236710 337.313965,235.902908 330.327362,228.697861 
	C319.833069,217.875443 312.112488,205.312180 309.178375,190.356781 
	C305.069092,169.411285 315.662842,149.225510 335.755768,138.014008 
	C371.162079,118.257889 409.453278,148.755112 410.520142,178.239243 
	C411.083832,193.817566 405.111572,207.125229 396.119049,219.288361 
	C391.872223,225.032532 386.699890,230.118637 382.710236,236.019043 
	C379.051086,241.430588 376.418030,247.535904 373.184265,253.614975 
	C377.004974,255.040863 381.410645,255.146469 378.308502,260.312531 
	C377.799255,261.160614 378.867157,262.955780 379.062531,264.707184 
M373.842010,197.366989 
	C373.214447,198.603180 372.586884,199.839371 371.256439,201.177765 
	C363.884918,201.069672 356.513367,200.961578 349.060394,200.180847 
	C348.572662,198.984695 348.084930,197.788544 347.597198,196.592407 
	C347.117889,196.588989 346.638580,196.585556 346.159302,196.582138 
	C345.628204,202.932739 344.507141,209.301178 344.698486,215.629944 
	C345.019897,226.260849 346.253540,236.861420 346.955688,247.484512 
	C347.477753,255.382690 347.481628,255.471634 355.951141,253.903641 
	C355.132477,243.216354 354.409149,232.469681 353.439636,221.745255 
	C353.040100,217.325806 352.111298,212.954208 351.359253,208.508972 
	C351.359253,208.508972 351.308685,208.443954 351.817322,207.866180 
	C351.655853,206.621552 351.494385,205.376923 351.873535,203.795181 
	C353.847961,204.189377 356.337738,205.536346 357.700287,204.799332 
	C361.808197,202.577301 365.942352,205.674240 369.890930,204.709320 
	C369.550201,205.722839 369.209473,206.736343 368.344757,208.139252 
	C368.304749,208.777634 368.264740,209.416000 367.768311,210.748657 
	C365.627686,225.183640 363.487091,239.618607 361.333252,254.142639 
	C364.586853,254.142639 367.130981,254.142639 369.731598,254.142639 
	C370.401917,250.001572 371.092834,246.255325 371.602600,242.484573 
	C373.019897,232.000732 374.361877,221.506699 375.771545,210.500504 
	C375.801422,210.330566 375.831268,210.160645 376.265533,209.194321 
	C375.640411,205.151031 375.015289,201.107727 374.573975,196.909668 
	C374.573975,196.909668 374.384460,196.819702 374.384460,196.819702 
	C374.384460,196.819702 374.491333,197.096710 373.842010,197.366989 
z"/>
<path fill="#FCD400" opacity="1.000000" stroke="none" 
	d="
M268.018097,429.994049 
	C269.244690,429.671692 270.757019,429.702423 271.655792,428.975037 
	C291.107208,413.232361 314.140564,409.347778 338.163208,408.848145 
	C364.918854,408.291656 391.259918,412.267578 417.573822,416.425232 
	C429.072266,418.242004 440.572845,420.052734 452.038422,422.060486 
	C453.616516,422.336823 455.526703,423.386078 456.387054,424.675446 
	C464.299408,436.533234 469.376587,449.634796 473.247040,463.979736 
	C471.091034,463.979736 469.348389,463.993835 467.606018,463.977692 
	C404.154236,463.389648 340.702087,462.834106 277.252380,462.072754 
	C274.838989,462.043793 271.971283,460.533905 270.144257,458.826874 
	C265.783173,454.752167 261.918243,450.146515 257.609833,445.492706 
	C259.501251,442.811249 261.298676,440.263031 263.073395,437.366333 
	C263.050659,437.017883 262.989258,437.044281 263.333740,437.031433 
	C264.118347,435.616272 264.558441,434.213898 265.071320,432.497742 
	C266.102112,431.453949 267.060120,430.723999 268.018097,429.994049 
M432.921570,432.873077 
	C433.156677,433.065430 433.391785,433.257782 433.626892,433.450165 
	C433.352448,433.378235 433.078033,433.306335 432.178192,432.809357 
	C431.475494,432.229187 430.828461,431.233398 430.061798,431.130737 
	C416.876648,429.365173 403.679382,427.688202 390.475800,426.065125 
	C389.214966,425.910156 387.894196,426.242737 386.601257,426.348969 
	C386.640930,426.673920 386.680603,426.998840 386.720276,427.323761 
	C402.107574,429.334137 417.494843,431.344513 432.921570,432.873077 
M335.503418,446.860016 
	C348.623932,447.613953 361.744476,448.367859 375.499939,449.158264 
	C348.026764,436.348785 310.168884,434.660461 288.247559,451.689453 
	C302.601593,450.190369 318.554260,448.524323 335.503418,446.860016 
M314.737488,418.171692 
	C309.888763,419.475311 305.040039,420.778900 300.191315,422.082489 
	C300.269714,422.636505 300.348083,423.190521 300.426483,423.744537 
	C322.671082,418.482819 345.170471,416.822144 367.898956,418.044098 
	C350.421295,415.016022 332.991852,414.676819 314.737488,418.171692 
z"/>
<path fill="#FDD500" opacity="1.000000" stroke="none" 
	d="
M254.258118,371.475647 
	C269.009308,349.130402 290.145355,337.814850 315.676208,334.111694 
	C342.608643,330.205261 369.126099,333.755371 395.435211,339.584503 
	C396.480621,339.816132 397.763824,340.382416 398.318665,341.207825 
	C405.708252,352.201630 412.987457,363.269653 420.862122,375.178040 
	C409.944366,373.867310 400.110016,372.562195 390.247314,371.527618 
	C367.198517,369.109711 344.127075,367.206573 321.004974,370.667908 
	C284.620636,376.114563 263.060883,395.623688 253.991821,431.235565 
	C253.639343,432.619629 253.255020,433.995605 251.998978,435.278198 
	C251.998978,427.602661 251.998978,419.927094 251.998978,412.251556 
	C251.998978,401.256165 251.875198,390.258362 252.092926,379.267273 
	C252.142441,376.767242 253.374298,374.290649 254.258118,371.475647 
z"/>
<path fill="#FCD500" opacity="1.000000" stroke="none" 
	d="
M268.072571,429.658142 
	C267.060120,430.723999 266.102112,431.453949 264.733246,432.725159 
	C263.877991,434.525696 263.433624,435.784973 262.989258,437.044281 
	C262.989258,437.044281 263.050659,437.017883 263.083099,437.011536 
	C261.631256,438.179779 260.134521,439.339081 258.666626,440.533844 
	C257.485382,441.495239 256.339081,442.499542 255.177277,443.484802 
	C254.812546,441.883057 253.843582,440.143982 254.171829,438.699738 
	C261.558289,406.199432 279.014648,386.313416 311.115997,379.022949 
	C331.088593,374.487000 351.216888,375.956970 371.316406,377.430237 
	C383.600098,378.330597 395.825836,380.000824 408.101654,381.041351 
	C412.282898,381.395782 415.564117,382.696472 418.682465,385.622650 
	C429.703918,395.964691 440.983490,406.031738 451.808685,417.290588 
	C445.900269,416.382050 439.992157,415.471802 434.083466,414.565216 
	C403.143677,409.818085 372.245728,404.375549 340.786316,405.083710 
	C319.130585,405.571198 297.958588,408.721985 279.237885,420.867554 
	C275.344574,423.393402 271.820984,426.489136 268.072571,429.658142 
z"/>
<path fill="#FAD300" opacity="1.000000" stroke="none" 
	d="
M246.220612,438.055908 
	C246.100418,439.372833 245.980225,440.689789 245.342224,441.641724 
	C240.407730,427.444061 234.364761,414.580414 223.104904,404.825195 
	C210.265076,391.923615 194.129044,385.029510 177.059494,380.154297 
	C155.033691,373.863464 132.338120,371.649384 109.577835,369.986237 
	C98.481804,369.175446 87.404984,368.101807 75.340012,367.062744 
	C81.859268,359.541107 87.757919,352.630524 93.829529,345.875458 
	C94.516792,345.110809 96.236191,344.819824 97.379303,344.985077 
	C131.226074,349.877563 164.561005,356.600128 195.035477,373.168701 
	C216.194672,384.672607 231.961472,401.244202 242.020905,423.989532 
	C243.529617,429.147675 244.875107,433.601776 246.220612,438.055908 
z"/>
<path fill="#F8D200" opacity="1.000000" stroke="none" 
	d="
M232.923904,421.126709 
	C232.415741,421.016907 231.719528,421.083832 231.426361,420.771942 
	C215.300613,403.616394 194.664810,397.566010 171.993927,397.073425 
	C150.009262,396.595734 128.807907,401.932953 107.502678,406.488892 
	C93.416733,409.501038 79.203873,411.919678 65.047836,414.604034 
	C64.849266,414.129150 64.650696,413.654266 64.452126,413.179352 
	C70.204277,408.541626 76.155739,404.126984 81.658791,399.210419 
	C88.751068,392.873962 96.218086,389.007141 106.269936,388.307251 
	C129.829712,386.666809 153.293121,383.306580 176.918793,386.967834 
	C193.251953,389.498932 208.586884,394.512482 221.643616,406.284637 
	C225.701447,411.525482 229.312668,416.326080 232.923904,421.126709 
z"/>
<path fill="#F0CA00" opacity="1.000000" stroke="none" 
	d="
M413.084900,125.036255 
	C415.162903,126.655334 415.369507,127.885643 413.539856,129.631897 
	C409.095337,133.873764 404.838104,138.311844 400.009094,143.170242 
	C398.419495,141.509048 396.972076,139.996414 395.091064,138.030685 
	C400.064209,133.156815 404.600983,128.578293 409.353058,124.235397 
	C409.893768,123.741219 411.642944,124.569351 413.084900,125.036255 
z"/>
<path fill="#F6CF00" opacity="1.000000" stroke="none" 
	d="
M357.192017,106.074234 
	C359.269623,106.004204 360.885498,106.004204 362.727295,106.004204 
	C362.727295,113.370895 362.727295,120.387222 362.727295,127.626892 
	C360.556000,127.626892 358.638824,127.626892 356.730347,127.626892 
	C356.730347,120.419304 356.730347,113.281792 357.192017,106.074234 
z"/>
<path fill="#EFC900" opacity="1.000000" stroke="none" 
	d="
M310.251831,229.253662 
	C313.126099,226.230606 315.750641,223.457642 319.020691,220.002625 
	C320.691986,222.006836 322.022156,223.601990 323.322266,225.161087 
	C318.225922,230.034134 313.207001,234.833145 307.796844,240.006256 
	C306.909210,239.173523 305.415924,237.772644 303.029358,235.533737 
	C305.526184,233.374496 307.764130,231.439117 310.251831,229.253662 
z"/>
<path fill="#F1CB00" opacity="1.000000" stroke="none" 
	d="
M400.669800,221.182678 
	C405.942871,225.965424 410.900513,230.569641 416.159119,235.453369 
	C413.897491,237.774567 412.545929,239.161743 411.398132,240.339798 
	C406.001556,235.058105 400.970612,230.134247 395.531860,224.811264 
	C397.107971,223.567017 398.731171,222.285583 400.669800,221.182678 
z"/>
<path fill="#FBD300" opacity="1.000000" stroke="none" 
	d="
M322.598633,139.230957 
	C321.503326,140.705368 320.655396,141.921036 320.145630,142.651886 
	C314.319916,137.126953 309.201447,132.272751 303.820953,127.170044 
	C305.213409,125.793823 306.615875,124.407715 308.928406,122.122162 
	C313.598633,127.149261 318.093475,131.938187 322.497314,136.809326 
	C322.908264,137.263870 322.743500,138.238876 322.598633,139.230957 
z"/>
<path fill="#F6CF00" opacity="1.000000" stroke="none" 
	d="
M288.160522,178.147507 
	C293.609772,178.147491 298.577026,178.147491 303.991333,178.147491 
	C304.102112,180.400360 304.196442,182.318527 304.310211,184.631912 
	C297.242157,184.631912 290.369781,184.631912 283.166504,184.631912 
	C283.166504,182.721939 283.166504,180.690048 283.166504,178.373138 
	C284.761139,178.293396 286.219849,178.220459 288.160522,178.147507 
z"/>
<path fill="#F6CF00" opacity="1.000000" stroke="none" 
	d="
M417.226410,185.010162 
	C415.887421,183.082916 415.026855,181.159515 413.837463,178.501190 
	C421.987091,178.501190 428.851990,178.501190 435.978455,178.501190 
	C435.978455,180.578278 435.978455,182.514114 435.978455,185.014023 
	C429.922119,185.014023 423.813477,185.014023 417.226410,185.010162 
z"/>
<path fill="#221D00" opacity="1.000000" stroke="none" 
	d="
M232.952118,421.089294 
	C229.312668,416.326080 225.701447,411.525482 221.945770,406.419312 
	C222.114136,405.849609 222.426926,405.585449 222.922302,405.073242 
	C234.364761,414.580414 240.407730,427.444061 244.898193,441.644470 
	C244.587494,442.035248 244.202988,442.058350 243.530029,442.060913 
	C240.225998,436.913055 237.210419,431.785706 234.393524,426.305237 
	C234.802216,425.947662 235.012177,425.943207 235.491806,425.744019 
	C235.145142,424.709076 234.528793,423.868835 233.912460,423.028595 
	C233.912460,423.028595 233.980392,423.023682 234.251984,422.756622 
	C233.983200,421.992950 233.442795,421.496338 232.902390,420.999725 
	C232.902390,420.999725 232.980347,421.051849 232.952118,421.089294 
z"/>
<path fill="#352C00" opacity="1.000000" stroke="none" 
	d="
M246.493271,438.066284 
	C244.875107,433.601776 243.529617,429.147675 242.165588,424.318970 
	C242.399841,423.675415 242.652649,423.406403 243.071625,422.912445 
	C244.791946,427.542511 246.346085,432.397552 247.878448,437.646362 
	C247.493088,438.052368 247.129501,438.064514 246.493271,438.066284 
z"/>
<path fill="#F8D200" opacity="1.000000" stroke="none" 
	d="
M233.939148,423.376556 
	C234.528793,423.868835 235.145142,424.709076 235.389847,425.434570 
	C234.663315,425.197876 234.308395,425.075897 233.953491,424.953918 
	C233.953491,424.953918 234.046509,424.973663 234.070526,425.014374 
	C234.051651,424.611572 234.008759,424.168030 233.939148,423.376556 
z"/>
<path fill="#F8D200" opacity="1.000000" stroke="none" 
	d="
M232.588531,421.254089 
	C233.442795,421.496338 233.983200,421.992950 234.244049,422.789734 
	C233.401230,422.562775 232.837952,422.035614 232.588531,421.254089 
z"/>
<path fill="#110E00" opacity="1.000000" stroke="none" 
	d="
M186.414093,432.561951 
	C197.381012,434.078125 207.457458,436.890808 216.731171,442.568604 
	C180.881012,433.971497 144.656555,438.523438 108.549889,438.998596 
	C134.261841,435.129608 159.756897,429.281677 186.414093,432.561951 
z"/>
<path fill="#010100" opacity="1.000000" stroke="none" 
	d="
M233.709564,425.220093 
	C234.308395,425.075897 234.663315,425.197876 235.120178,425.629303 
	C235.012177,425.943207 234.802216,425.947662 234.278473,425.980164 
	C233.798340,425.834167 233.631989,425.660217 233.709564,425.220093 
z"/>
<path fill="#FFFDF4" opacity="1.000000" stroke="none" 
	d="
M351.332916,204.132294 
	C351.494385,205.376923 351.655853,206.621552 351.344299,208.369354 
	C350.310486,208.985840 349.749664,209.099121 349.188873,209.212402 
	C349.604248,209.592896 350.019623,209.973373 350.435028,210.353867 
	C350.764435,209.756195 351.093842,209.158508 351.423218,208.560822 
	C352.111298,212.954208 353.040100,217.325806 353.439636,221.745255 
	C354.409149,232.469681 355.132477,243.216354 355.951141,253.903641 
	C347.481628,255.471634 347.477753,255.382690 346.955688,247.484512 
	C346.253540,236.861420 345.019897,226.260849 344.698486,215.629944 
	C344.507141,209.301178 345.628204,202.932739 346.159302,196.582138 
	C346.638580,196.585556 347.117889,196.588989 347.597198,196.592407 
	C348.084930,197.788544 348.572662,198.984695 349.177490,200.841080 
	C349.974030,202.378311 350.653473,203.255310 351.332916,204.132294 
z"/>
<path fill="#FFFEF7" opacity="1.000000" stroke="none" 
	d="
M371.959320,201.075577 
	C372.586884,199.839371 373.214447,198.603180 374.145477,197.210388 
	C374.448944,197.053772 374.390167,197.064438 374.390167,197.064438 
	C375.015289,201.107727 375.640411,205.151031 375.743011,209.588074 
	C374.358704,210.251923 373.496918,210.522018 372.635132,210.792114 
	C372.750305,211.065948 372.865509,211.339783 372.980682,211.613617 
	C373.898346,211.414642 374.815979,211.215668 375.733643,211.016693 
	C374.361877,221.506699 373.019897,232.000732 371.602600,242.484573 
	C371.092834,246.255325 370.401917,250.001572 369.731598,254.142639 
	C367.130981,254.142639 364.586853,254.142639 361.333252,254.142639 
	C363.487091,239.618607 365.627686,225.183640 368.232422,210.518463 
	C369.244659,210.218414 369.792725,210.148560 370.340820,210.078720 
	C369.850128,209.302444 369.359436,208.526154 368.868774,207.749847 
	C369.209473,206.736343 369.550201,205.722839 370.110565,204.181808 
	C370.873230,202.794724 371.416260,201.935150 371.959320,201.075577 
z"/>
<path fill="#EBE6CC" opacity="1.000000" stroke="none" 
	d="
M371.607880,201.126678 
	C371.416260,201.935150 370.873230,202.794724 370.098389,203.858551 
	C365.942352,205.674240 361.808197,202.577301 357.700287,204.799332 
	C356.337738,205.536346 353.847961,204.189377 351.603210,203.963745 
	C350.653473,203.255310 349.974030,202.378311 349.218201,201.177399 
	C356.513367,200.961578 363.884918,201.069672 371.607880,201.126678 
z"/>
<path fill="#FFFCEC" opacity="1.000000" stroke="none" 
	d="
M375.752594,210.758591 
	C374.815979,211.215668 373.898346,211.414642 372.980682,211.613617 
	C372.865509,211.339783 372.750305,211.065948 372.635132,210.792114 
	C373.496918,210.522018 374.358704,210.251923 375.540802,209.986267 
	C375.831268,210.160645 375.801422,210.330566 375.752594,210.758591 
z"/>
<path fill="#FFFCEC" opacity="1.000000" stroke="none" 
	d="
M368.606750,207.944550 
	C369.359436,208.526154 369.850128,209.302444 370.340820,210.078720 
	C369.792725,210.148560 369.244659,210.218414 368.460632,210.171326 
	C368.264740,209.416000 368.304749,208.777634 368.606750,207.944550 
z"/>
<path fill="#FFFDF2" opacity="1.000000" stroke="none" 
	d="
M351.391235,208.534897 
	C351.093842,209.158508 350.764435,209.756195 350.435028,210.353867 
	C350.019623,209.973373 349.604248,209.592896 349.188873,209.212402 
	C349.749664,209.099121 350.310486,208.985840 351.089966,208.658249 
	C351.308685,208.443954 351.359253,208.508972 351.391235,208.534897 
z"/>
<path fill="#FFFCEC" opacity="1.000000" stroke="none" 
	d="
M374.482056,196.987061 
	C374.390167,197.064438 374.448944,197.053772 374.470154,197.075241 
	C374.491333,197.096710 374.384460,196.819702 374.384460,196.819702 
	C374.384460,196.819702 374.573975,196.909668 374.482056,196.987061 
z"/>
<path fill="#0D0B00" opacity="1.000000" stroke="none" 
	d="
M335.005157,446.859131 
	C318.554260,448.524323 302.601593,450.190369 288.247559,451.689453 
	C310.168884,434.660461 348.026764,436.348785 375.499939,449.158264 
	C361.744476,448.367859 348.623932,447.613953 335.005157,446.859131 
z"/>
<path fill="#100E00" opacity="1.000000" stroke="none" 
	d="
M315.156860,418.107910 
	C332.991852,414.676819 350.421295,415.016022 367.898956,418.044098 
	C345.170471,416.822144 322.671082,418.482819 300.426483,423.744537 
	C300.348083,423.190521 300.269714,422.636505 300.191315,422.082489 
	C305.040039,420.778900 309.888763,419.475311 315.156860,418.107910 
z"/>
<path fill="#2A2400" opacity="1.000000" stroke="none" 
	d="
M432.882111,433.354889 
	C417.494843,431.344513 402.107574,429.334137 386.720276,427.323761 
	C386.680603,426.998840 386.640930,426.673920 386.601257,426.348969 
	C387.894196,426.242737 389.214966,425.910156 390.475800,426.065125 
	C403.679382,427.688202 416.876648,429.365173 430.061798,431.130737 
	C430.828461,431.233398 431.475494,432.229187 432.521118,433.045105 
	C432.864075,433.280823 432.882111,433.354889 432.882111,433.354889 
z"/>
<path fill="#010100" opacity="1.000000" stroke="none" 
	d="
M263.333740,437.031433 
	C263.433624,435.784973 263.877991,434.525696 264.660461,433.039001 
	C264.558441,434.213898 264.118347,435.616272 263.333740,437.031433 
z"/>
<path fill="#2A2400" opacity="1.000000" stroke="none" 
	d="
M432.833832,433.257629 
	C433.078033,433.306335 433.352448,433.378235 433.626892,433.450134 
	C433.391785,433.257782 433.156677,433.065430 432.901855,433.113983 
	C432.882111,433.354889 432.864075,433.280823 432.833832,433.257629 
z"/>
</svg>